<?xml version="1.0" encoding="iso-8859-1"?>
<!-- Generator: Adobe Illustrator 19.0.0, SVG Export Plug-In . SVG Version: 6.00 Build 0)  -->
<svg version="1.1" id="Layer_1" xmlns="http://www.w3.org/2000/svg" xmlns:xlink="http://www.w3.org/1999/xlink" x="0px" y="0px"
	 viewBox="0 0 511.999 511.999" style="enable-background:new 0 0 511.999 511.999;" xml:space="preserve">
<path style="fill:#B3404A;" d="M477.832,408.28H142.075c-7.691,0-13.929-6.236-13.929-13.929c0-7.693,6.237-13.929,13.929-13.929
	h335.757c3.481,0,6.311-3.385,6.311-7.545V139.121c0-4.16-2.83-7.545-6.311-7.545H162.315c-3.481,0-6.311,3.385-6.311,7.545v167.826
	c0,7.693-6.237,13.929-13.929,13.929c-7.691,0-13.929-6.236-13.929-13.929V139.121c0-19.521,15.328-35.402,34.168-35.402H477.83
	c18.84,0,34.168,15.881,34.168,35.402v233.755C512,392.398,496.672,408.28,477.832,408.28z"/>
<path style="fill:#F4B2B0;" d="M142.075,139.121L142.075,139.121c0,6.854,3.085,13.298,8.303,17.341l169.697,131.493
	l169.697-131.493c5.218-4.043,8.303-10.485,8.303-17.341l0,0c0-11.86-9.062-21.474-20.24-21.474h-315.52
	C151.137,117.648,142.075,127.262,142.075,139.121z"/>
<g>
	<path style="fill:#B3404A;" d="M320.073,301.884c-3.01,0-6.02-0.974-8.531-2.918L141.845,167.473
		c-8.577-6.647-13.699-17.245-13.699-28.35c0-19.521,15.328-35.402,34.168-35.402H477.83c18.84,0,34.168,15.881,34.168,35.402
		c0,11.105-5.122,21.704-13.7,28.35L328.604,298.966C326.093,300.912,323.083,301.884,320.073,301.884z M162.315,131.576
		c-3.479,0-6.311,3.385-6.311,7.545c0,2.555,1.085,4.921,2.904,6.331l161.165,124.883l161.164-124.883
		c1.819-1.41,2.905-3.776,2.905-6.331c0-4.16-2.832-7.545-6.311-7.545H162.315L162.315,131.576z"/>
	<path style="fill:#B3404A;" d="M140.681,195.17H13.929C6.237,195.17,0,188.934,0,181.242s6.237-13.929,13.929-13.929h126.752
		c7.691,0,13.929,6.236,13.929,13.929S148.372,195.17,140.681,195.17z"/>
	<path style="fill:#B3404A;" d="M140.681,258.545H55.719c-7.691,0-13.929-6.236-13.929-13.929s6.237-13.929,13.929-13.929h84.962
		c7.691,0,13.929,6.236,13.929,13.929S148.372,258.545,140.681,258.545z"/>
	<path style="fill:#B3404A;" d="M140.681,321.921H97.509c-7.691,0-13.929-6.236-13.929-13.929s6.237-13.929,13.929-13.929h43.172
		c7.691,0,13.929,6.236,13.929,13.929S148.372,321.921,140.681,321.921z"/>
</g>
<g>
</g>
<g>
</g>
<g>
</g>
<g>
</g>
<g>
</g>
<g>
</g>
<g>
</g>
<g>
</g>
<g>
</g>
<g>
</g>
<g>
</g>
<g>
</g>
<g>
</g>
<g>
</g>
<g>
</g>
</svg>
